<svg width="171" height="171" viewBox="0 0 171 171" fill="none" xmlns="http://www.w3.org/2000/svg">
<mask id="mask0_417_1138" style="mask-type:alpha" maskUnits="userSpaceOnUse" x="0" y="0" width="171" height="171">
<rect width="170.236" height="170.236" fill="#D9D9D9"/>
</mask>
<g mask="url(#mask0_417_1138)">
<path d="M79.798 26.5999V7.09375H90.4378V26.5999H79.798ZM79.798 163.143V143.637H90.4378V163.143H79.798ZM143.636 90.4384V79.7987H163.143V90.4384H143.636ZM7.09314 90.4384V79.7987H26.5993V90.4384H7.09314ZM131.578 46.1061L123.953 38.481L135.657 26.7773L143.282 34.4024L131.578 46.1061ZM34.5791 143.46L26.954 135.835L38.6577 124.131L46.2829 131.756L34.5791 143.46ZM135.657 143.46L123.953 131.756L131.578 124.131L143.282 135.835L135.657 143.46ZM38.6577 46.1061L26.954 34.4024L34.5791 26.7773L46.2829 38.481L38.6577 46.1061ZM85.1179 125.018C74.0053 125.018 64.5773 121.146 56.8339 113.403C49.0906 105.659 45.2189 96.2311 45.2189 85.1185C45.2189 74.0059 49.0906 64.5779 56.8339 56.8345C64.5773 49.0912 74.0053 45.2195 85.1179 45.2195C96.2305 45.2195 105.659 49.0912 113.402 56.8345C121.145 64.5779 125.017 74.0059 125.017 85.1185C125.017 96.2311 121.145 105.659 113.402 113.403C105.659 121.146 96.2305 125.018 85.1179 125.018ZM85.1179 114.378C93.275 114.378 100.191 111.541 105.865 105.866C111.54 100.191 114.377 93.2757 114.377 85.1185C114.377 76.9614 111.54 70.0456 105.865 64.371C100.191 58.6965 93.275 55.8592 85.1179 55.8592C76.9608 55.8592 70.0449 58.6965 64.3704 64.371C58.6959 70.0456 55.8586 76.9614 55.8586 85.1185C55.8586 93.2757 58.6959 100.191 64.3704 105.866C70.0449 111.541 76.9608 114.378 85.1179 114.378Z" fill="#1C1B1F"/>
</g>
</svg>
