<svg width="79" height="79" viewBox="0 0 79 79" fill="none" xmlns="http://www.w3.org/2000/svg">
<mask id="mask0_271_256" style="mask-type:alpha" maskUnits="userSpaceOnUse" x="0" y="0" width="79" height="79">
<rect x="0.924438" y="0.57666" width="78.0059" height="78.0059" fill="#D9D9D9"/>
</mask>
<g mask="url(#mask0_271_256)">
<path d="M39.9276 72.0822C35.4856 72.0822 31.2874 71.229 27.3329 69.5226C23.3785 67.8162 19.9251 65.4869 16.9728 62.5346C14.0205 59.5823 11.6911 56.1289 9.98474 52.1744C8.27836 48.22 7.42517 44.0217 7.42517 39.5797C7.42517 34.9752 8.2919 30.6957 10.0254 26.7413C11.7588 22.7868 14.1288 19.3469 17.1353 16.4217C20.1418 13.4965 23.6629 11.2078 27.6986 9.55558C31.7343 7.90337 36.0544 7.07727 40.6589 7.07727C44.9384 7.07727 49.0012 7.79503 52.8473 9.23056C56.6935 10.6661 60.0656 12.6569 62.9637 15.2029C65.8619 17.7489 68.1641 20.7689 69.8705 24.2629C71.5769 27.757 72.4301 31.5895 72.4301 35.7607C72.4301 41.6111 70.7237 46.2292 67.3109 49.6148C63.8982 53.0005 59.3749 54.6934 53.7412 54.6934H47.6469C46.6719 54.6934 45.8322 55.0725 45.128 55.8309C44.4238 56.5893 44.0717 57.429 44.0717 58.3499C44.0717 59.8125 44.4644 61.0584 45.2499 62.0877C46.0354 63.1169 46.4281 64.3087 46.4281 65.6629C46.4281 67.7214 45.8593 69.3059 44.7217 70.4164C43.5841 71.5269 41.9861 72.0822 39.9276 72.0822ZM20.9949 41.6924C22.0784 41.6924 23.0263 41.2861 23.8389 40.4735C24.6515 39.661 25.0577 38.713 25.0577 37.6296C25.0577 36.5462 24.6515 35.5982 23.8389 34.7856C23.0263 33.973 22.0784 33.5668 20.9949 33.5668C19.9115 33.5668 18.9635 33.973 18.151 34.7856C17.3384 35.5982 16.9321 36.5462 16.9321 37.6296C16.9321 38.713 17.3384 39.661 18.151 40.4735C18.9635 41.2861 19.9115 41.6924 20.9949 41.6924ZM31.2332 27.8788C32.3166 27.8788 33.2646 27.4726 34.0772 26.66C34.8897 25.8474 35.296 24.8994 35.296 23.816C35.296 22.7326 34.8897 21.7846 34.0772 20.9721C33.2646 20.1595 32.3166 19.7532 31.2332 19.7532C30.1498 19.7532 29.2018 20.1595 28.3892 20.9721C27.5767 21.7846 27.1704 22.7326 27.1704 23.816C27.1704 24.8994 27.5767 25.8474 28.3892 26.66C29.2018 27.4726 30.1498 27.8788 31.2332 27.8788ZM48.622 27.8788C49.7054 27.8788 50.6534 27.4726 51.466 26.66C52.2785 25.8474 52.6848 24.8994 52.6848 23.816C52.6848 22.7326 52.2785 21.7846 51.466 20.9721C50.6534 20.1595 49.7054 19.7532 48.622 19.7532C47.5386 19.7532 46.5906 20.1595 45.7781 20.9721C44.9655 21.7846 44.5592 22.7326 44.5592 23.816C44.5592 24.8994 44.9655 25.8474 45.7781 26.66C46.5906 27.4726 47.5386 27.8788 48.622 27.8788ZM59.2666 41.6924C60.35 41.6924 61.298 41.2861 62.1105 40.4735C62.9231 39.661 63.3294 38.713 63.3294 37.6296C63.3294 36.5462 62.9231 35.5982 62.1105 34.7856C61.298 33.973 60.35 33.5668 59.2666 33.5668C58.1832 33.5668 57.2352 33.973 56.4226 34.7856C55.6101 35.5982 55.2038 36.5462 55.2038 37.6296C55.2038 38.713 55.6101 39.661 56.4226 40.4735C57.2352 41.2861 58.1832 41.6924 59.2666 41.6924ZM39.9276 67.2068C40.5235 67.2068 40.9433 67.0849 41.1871 66.8411C41.4309 66.5974 41.5527 66.2046 41.5527 65.6629C41.5527 64.9045 41.16 64.2003 40.3745 63.5503C39.5891 62.9002 39.1963 61.4647 39.1963 59.2437C39.1963 56.7518 40.0089 54.5579 41.634 52.6619C43.2591 50.766 45.3176 49.818 47.8095 49.818H53.7412C57.8581 49.818 61.1896 48.6127 63.7357 46.2021C66.2817 43.7915 67.5547 40.311 67.5547 35.7607C67.5547 28.6101 64.8462 22.8545 59.4291 18.4938C54.012 14.133 47.7553 11.9526 40.6589 11.9526C32.75 11.9526 26.0464 14.6205 20.548 19.9564C15.0497 25.2922 12.3005 31.8333 12.3005 39.5797C12.3005 47.2178 14.9955 53.7318 20.3855 59.1218C25.7755 64.5118 32.2895 67.2068 39.9276 67.2068Z" fill="#1C1B1F"/>
</g>
</svg>
