<svg width="68" height="68" viewBox="0 0 68 68" fill="none" xmlns="http://www.w3.org/2000/svg">
<mask id="mask0_669_1455" style="mask-type:alpha" maskUnits="userSpaceOnUse" x="0" y="0" width="68" height="68">
<rect x="0.179321" y="0.179199" width="67.8207" height="67.8207" fill="#D9D9D9"/>
</mask>
<g mask="url(#mask0_669_1455)">
<path d="M34.0898 62.3483C30.2278 62.3483 26.5777 61.6065 23.1396 60.123C19.7015 58.6394 16.699 56.6142 14.1322 54.0473C11.5653 51.4805 9.54012 48.478 8.05654 45.0399C6.57297 41.6018 5.83118 37.9517 5.83118 34.0897C5.83118 30.0864 6.58474 26.3657 8.09187 22.9275C9.59899 19.4894 11.6595 16.4987 14.2734 13.9554C16.8874 11.4121 19.9487 9.42226 23.4575 7.98578C26.9663 6.5493 30.7223 5.83105 34.7256 5.83105C38.4464 5.83105 41.9787 6.4551 45.3226 7.70319C48.6666 8.95128 51.5984 10.6821 54.1181 12.8957C56.6378 15.1093 58.6395 17.735 60.1231 20.7728C61.6067 23.8106 62.3484 27.1428 62.3484 30.7693C62.3484 35.8559 60.8649 39.8709 57.8977 42.8145C54.9306 45.7581 50.9979 47.23 46.0997 47.23H40.8012C39.9535 47.23 39.2235 47.5596 38.6112 48.219C37.9989 48.8784 37.6928 49.6084 37.6928 50.409C37.6928 51.6807 38.0342 52.7639 38.7172 53.6588C39.4001 54.5536 39.7415 55.5898 39.7415 56.7672C39.7415 58.557 39.247 59.9346 38.258 60.9001C37.2689 61.8656 35.8795 62.3483 34.0898 62.3483ZM17.6292 35.9265C18.5711 35.9265 19.3953 35.5733 20.1018 34.8668C20.8083 34.1603 21.1615 33.3361 21.1615 32.3942C21.1615 31.4522 20.8083 30.628 20.1018 29.9215C19.3953 29.2151 18.5711 28.8618 17.6292 28.8618C16.6872 28.8618 15.863 29.2151 15.1565 29.9215C14.4501 30.628 14.0968 31.4522 14.0968 32.3942C14.0968 33.3361 14.4501 34.1603 15.1565 34.8668C15.863 35.5733 16.6872 35.9265 17.6292 35.9265ZM26.5306 23.9166C27.4726 23.9166 28.2968 23.5633 29.0033 22.8569C29.7097 22.1504 30.063 21.3262 30.063 20.3843C30.063 19.4423 29.7097 18.6181 29.0033 17.9116C28.2968 17.2052 27.4726 16.8519 26.5306 16.8519C25.5887 16.8519 24.7645 17.2052 24.058 17.9116C23.3515 18.6181 22.9983 19.4423 22.9983 20.3843C22.9983 21.3262 23.3515 22.1504 24.058 22.8569C24.7645 23.5633 25.5887 23.9166 26.5306 23.9166ZM41.649 23.9166C42.5909 23.9166 43.4152 23.5633 44.1216 22.8569C44.8281 22.1504 45.1813 21.3262 45.1813 20.3843C45.1813 19.4423 44.8281 18.6181 44.1216 17.9116C43.4152 17.2052 42.5909 16.8519 41.649 16.8519C40.707 16.8519 39.8828 17.2052 39.1764 17.9116C38.4699 18.6181 38.1167 19.4423 38.1167 20.3843C38.1167 21.3262 38.4699 22.1504 39.1764 22.8569C39.8828 23.5633 40.707 23.9166 41.649 23.9166ZM50.9037 35.9265C51.8457 35.9265 52.6699 35.5733 53.3763 34.8668C54.0828 34.1603 54.436 33.3361 54.436 32.3942C54.436 31.4522 54.0828 30.628 53.3763 29.9215C52.6699 29.2151 51.8457 28.8618 50.9037 28.8618C49.9617 28.8618 49.1375 29.2151 48.4311 29.9215C47.7246 30.628 47.3714 31.4522 47.3714 32.3942C47.3714 33.3361 47.7246 34.1603 48.4311 34.8668C49.1375 35.5733 49.9617 35.9265 50.9037 35.9265ZM34.0898 58.1095C34.6079 58.1095 34.9729 58.0036 35.1848 57.7916C35.3968 57.5797 35.5027 57.2382 35.5027 56.7672C35.5027 56.1079 35.1613 55.4956 34.4784 54.9304C33.7954 54.3653 33.454 53.1172 33.454 51.1862C33.454 49.0197 34.1605 47.1122 35.5734 45.4638C36.9863 43.8154 38.776 42.9912 40.9425 42.9912H46.0997C49.6792 42.9912 52.5757 41.9432 54.7893 39.8474C57.0029 37.7515 58.1096 34.7255 58.1096 30.7693C58.1096 24.5524 55.7548 19.5483 51.045 15.7569C46.3352 11.9655 40.8954 10.0698 34.7256 10.0698C27.8494 10.0698 22.021 12.3894 17.2406 17.0285C12.4602 21.6677 10.07 27.3547 10.07 34.0897C10.07 40.7305 12.4131 46.394 17.0993 51.0802C21.7855 55.7664 27.449 58.1095 34.0898 58.1095Z" fill="#1C1B1F"/>
</g>
</svg>
