<svg width="97" height="97" viewBox="0 0 97 97" fill="none" xmlns="http://www.w3.org/2000/svg">
<mask id="mask0_330_429" style="mask-type:alpha" maskUnits="userSpaceOnUse" x="0" y="0" width="97" height="96">
<rect x="0.0390625" width="96" height="96" fill="#D9D9D9"/>
</mask>
<g mask="url(#mask0_330_429)">
<path d="M38.2391 84V72.2L24.0391 56.6V35.1C24.0391 33.4333 24.6224 32.0167 25.7891 30.85C26.9557 29.6833 28.3724 29.1 30.0391 29.1H37.2391L34.2391 32.1V12H40.2391V29.1H55.8391V12H61.8391V32.1L58.8391 29.1H66.0391C67.7057 29.1 69.1224 29.6833 70.2891 30.85C71.4557 32.0167 72.0391 33.4333 72.0391 35.1V56.6L57.8391 72.2V84H38.2391Z" fill="#F9D978"/>
</g>
<mask id="mask1_330_429" style="mask-type:alpha" maskUnits="userSpaceOnUse" x="0" y="0" width="97" height="97">
<rect x="0.0390625" width="96.4055" height="96.4055" fill="#D9D9D9"/>
</mask>
<g mask="url(#mask1_330_429)">
<path d="M44.4257 78.3295H52.0578V70.0949L66.3178 54.429V35.2483H30.1657V54.429L44.4257 70.0949V78.3295ZM38.4004 84.3549V72.505L24.1404 56.8392V35.2483C24.1404 33.5746 24.7262 32.152 25.8978 30.9804C27.0694 29.8088 28.492 29.223 30.1657 29.223H37.3961L34.3835 32.2357V12.0508H40.4088V29.223H56.0747V12.0508H62.1V32.2357L59.0874 29.223H66.3178C67.9915 29.223 69.4141 29.8088 70.5857 30.9804C71.7573 32.152 72.3431 33.5746 72.3431 35.2483V56.8392L58.0831 72.505V84.3549H38.4004Z" fill="#1C1B1F"/>
</g>
</svg>
