<svg width="57" height="57" viewBox="0 0 57 57" fill="none" xmlns="http://www.w3.org/2000/svg">
<mask id="mask0_353_586" style="mask-type:alpha" maskUnits="userSpaceOnUse" x="0" y="0" width="57" height="57">
<rect width="57" height="57" fill="#D9D9D9"/>
</mask>
<g mask="url(#mask0_353_586)">
<path d="M26.7187 30.9939V6.8877H30.2812V30.9939H26.7187ZM28.5 49.9939C25.5708 49.9939 22.8099 49.4299 20.2172 48.3018C17.6245 47.1736 15.3583 45.6398 13.4187 43.7002C11.4792 41.7606 9.94531 39.4945 8.81719 36.9018C7.68906 34.3091 7.125 31.5481 7.125 28.6189C7.125 25.4523 7.79792 22.4934 9.14375 19.7424C10.4896 16.9913 12.3896 14.5471 14.8437 12.4096L17.3375 14.9033C15.2396 16.6054 13.6068 18.634 12.4391 20.9893C11.2714 23.3445 10.6875 25.8877 10.6875 28.6189C10.6875 33.5669 12.4193 37.7726 15.8828 41.2361C19.3464 44.6997 23.5521 46.4314 28.5 46.4314C33.4479 46.4314 37.6536 44.6997 41.1172 41.2361C44.5807 37.7726 46.3125 33.5669 46.3125 28.6189C46.3125 25.8877 45.7286 23.3247 44.5609 20.9299C43.3932 18.5351 41.8 16.5262 39.7812 14.9033L42.3344 12.4096C44.7094 14.4283 46.5599 16.8429 47.8859 19.6533C49.212 22.4637 49.875 25.4523 49.875 28.6189C49.875 31.5481 49.3109 34.3091 48.1828 36.9018C47.0547 39.4945 45.5307 41.7606 43.6109 43.7002C41.6911 45.6398 39.4349 47.1736 36.8422 48.3018C34.2495 49.4299 31.4687 49.9939 28.5 49.9939Z" fill="#1C1B1F"/>
</g>
</svg>
