<?xml version="1.0" encoding="utf-8"?>
<!-- Generator: Adobe Illustrator 26.5.0, SVG Export Plug-In . SVG Version: 6.00 Build 0)  -->
<svg version="1.1" id="Ebene_1" xmlns="http://www.w3.org/2000/svg" xmlns:xlink="http://www.w3.org/1999/xlink" x="0px" y="0px"
	 viewBox="0 0 206 140.5" style="enable-background:new 0 0 206 140.5;" xml:space="preserve">
<style type="text/css">
	.st0{fill:#010202;stroke:#000000;stroke-miterlimit:10;}
</style>
<path id="XMLID_00000059309472823902780630000002654494938956763030_" class="st0" d="M10.3,5h182.4c4.9,0,8.8,3.9,8.8,8.8v102.4
	c0,4.9-3.9,8.8-8.8,8.8H10.3c-4.9,0-8.8-3.9-8.8-8.8V13.8C1.5,8.9,5.4,5,10.3,5z"/>
<path id="XMLID_00000067929853328464325940000016748858499777972133_" class="st0" d="M12.7,137.9H2.6c-0.6,0-1.1-0.5-1.1-1.1V117
	c0-0.6,0.5-1.1,1.1-1.1h10.2c0.6,0,1.1,0.5,1.1,1.1v19.9C13.8,137.4,13.3,137.9,12.7,137.9z"/>
<path id="XMLID_00000178905162595612044250000004504730620657098913_" class="st0" d="M200.4,137.9h-10.2c-0.6,0-1.1-0.5-1.1-1.1
	V117c0-0.6,0.5-1.1,1.1-1.1h10.2c0.6,0,1.1,0.5,1.1,1.1v19.9C201.5,137.4,201,137.9,200.4,137.9z"/>
</svg>
