<?xml version="1.0" encoding="utf-8"?>
<!-- Generator: Adobe Illustrator 26.5.0, SVG Export Plug-In . SVG Version: 6.00 Build 0)  -->
<svg version="1.1" id="Ebene_1" xmlns="http://www.w3.org/2000/svg" xmlns:xlink="http://www.w3.org/1999/xlink" x="0px" y="0px"
	 viewBox="0 0 123 232.1" style="enable-background:new 0 0 123 232.1;" xml:space="preserve">
<style type="text/css">
	.st0{fill:#010202;stroke:#000000;stroke-miterlimit:10;}
</style>
<path id="XMLID_00000059309472823902780630000002654494938956763030_" class="st0" d="M121.5,10.5v182.4c0,4.9-3.9,8.8-8.8,8.8H10.3
	c-4.9,0-8.8-3.9-8.8-8.8V10.5c0-4.9,3.9-8.8,8.8-8.8l102.4,0C117.5,1.7,121.5,5.6,121.5,10.5z"/>
<path id="XMLID_00000067929853328464325940000016748858499777972133_" class="st0" d="M12.7,214.7H2.6c-0.6,0-1.1-0.5-1.1-1.1v-19.9
	c0-0.6,0.5-1.1,1.1-1.1h10.2c0.6,0,1.1,0.5,1.1,1.1v19.9C13.8,214.2,13.3,214.7,12.7,214.7z"/>
<path id="XMLID_00000178905162595612044250000004504730620657098913_" class="st0" d="M120.4,214.7h-10.2c-0.6,0-1.1-0.5-1.1-1.1
	v-19.9c0-0.6,0.5-1.1,1.1-1.1h10.2c0.6,0,1.1,0.5,1.1,1.1v19.9C121.5,214.2,121,214.7,120.4,214.7z"/>
</svg>
