<svg width="80" height="80" viewBox="0 0 80 80" fill="none" xmlns="http://www.w3.org/2000/svg">
<mask id="mask0_353_597" style="mask-type:alpha" maskUnits="userSpaceOnUse" x="0" y="0" width="80" height="80">
<rect width="80" height="80" fill="#D9D9D9"/>
</mask>
<g mask="url(#mask0_353_597)">
<path d="M39.9998 39.9167C36.3331 39.9167 33.3331 38.7501 30.9998 36.4167C28.6665 34.0834 27.4998 31.0834 27.4998 27.4167C27.4998 23.7501 28.6665 20.7501 30.9998 18.4167C33.3331 16.0834 36.3331 14.9167 39.9998 14.9167C43.6665 14.9167 46.6665 16.0834 48.9998 18.4167C51.3331 20.7501 52.4998 23.7501 52.4998 27.4167C52.4998 31.0834 51.3331 34.0834 48.9998 36.4167C46.6665 38.7501 43.6665 39.9167 39.9998 39.9167ZM13.3331 66.6667V58.8334C13.3331 56.7223 13.8609 54.9167 14.9165 53.4167C15.972 51.9167 17.3331 50.7779 18.9998 50.0001C22.722 48.3334 26.2915 47.0834 29.7081 46.2501C33.1248 45.4167 36.5553 45.0001 39.9998 45.0001C43.4442 45.0001 46.8609 45.4306 50.2498 46.2917C53.6387 47.1529 57.1942 48.389 60.9165 50.0001C62.6387 50.7779 64.0276 51.9167 65.0831 53.4167C66.1387 54.9167 66.6665 56.7223 66.6665 58.8334V66.6667H13.3331ZM18.3331 61.6667H61.6665V58.8334C61.6665 57.9445 61.4026 57.0973 60.8748 56.2917C60.347 55.4862 59.6942 54.889 58.9165 54.5001C55.3609 52.7779 52.1109 51.5973 49.1665 50.9584C46.222 50.3195 43.1665 50.0001 39.9998 50.0001C36.8331 50.0001 33.7498 50.3195 30.7498 50.9584C27.7498 51.5973 24.4998 52.7779 20.9998 54.5001C20.222 54.889 19.5831 55.4862 19.0831 56.2917C18.5831 57.0973 18.3331 57.9445 18.3331 58.8334V61.6667ZM39.9998 34.9167C42.1665 34.9167 43.9581 34.2084 45.3748 32.7917C46.7915 31.3751 47.4998 29.5834 47.4998 27.4167C47.4998 25.2501 46.7915 23.4584 45.3748 22.0417C43.9581 20.6251 42.1665 19.9167 39.9998 19.9167C37.8331 19.9167 36.0415 20.6251 34.6248 22.0417C33.2081 23.4584 32.4998 25.2501 32.4998 27.4167C32.4998 29.5834 33.2081 31.3751 34.6248 32.7917C36.0415 34.2084 37.8331 34.9167 39.9998 34.9167Z" fill="#1C1B1F"/>
</g>
</svg>
