<svg width="110" height="110" viewBox="0 0 110 110" fill="none" xmlns="http://www.w3.org/2000/svg">
<mask id="mask0_353_476" style="mask-type:alpha" maskUnits="userSpaceOnUse" x="0" y="0" width="110" height="110">
<rect width="109.686" height="109.686" fill="#D9D9D9"/>
</mask>
<g mask="url(#mask0_353_476)">
<mask id="mask1_353_476" style="mask-type:alpha" maskUnits="userSpaceOnUse" x="5" y="5" width="99" height="99">
<rect x="5.47002" y="5.46997" width="98.4602" height="98.4602" fill="#717C83"/>
</mask>
<g mask="url(#mask1_353_476)">
<path d="M45.2644 95.7253L43.2132 82.8023C41.914 82.3237 40.5465 81.6741 39.1106 80.8537C37.6748 80.0331 36.4098 79.1785 35.3158 78.2896L23.2134 83.828L13.6751 67.0077L24.7519 58.9052C24.6151 58.2898 24.5296 57.589 24.4954 56.8027C24.4613 56.0164 24.4442 55.3155 24.4442 54.7001C24.4442 54.0848 24.4613 53.3839 24.4954 52.5976C24.5296 51.8113 24.6151 51.1105 24.7519 50.4951L13.6751 42.3926L23.2134 25.5723L35.3158 31.1107C36.4098 30.2218 37.6748 29.3671 39.1106 28.5466C40.5465 27.7261 41.914 27.1108 43.2132 26.7005L45.2644 13.675H64.136L66.1872 26.598C67.4863 27.0766 68.8709 27.7091 70.341 28.4954C71.8111 29.2817 73.0589 30.1535 74.0845 31.1107L86.1869 25.5723L95.7253 42.3926L84.6485 50.29C84.7852 50.9737 84.8707 51.7087 84.9049 52.495C84.9391 53.2814 84.9562 54.0164 84.9562 54.7001C84.9562 55.3839 84.9391 56.1018 84.9049 56.854C84.8707 57.6061 84.7852 58.324 84.6485 59.0078L95.7253 67.0077L86.1869 83.828L74.0845 78.2896C72.9905 79.1785 71.7427 80.0502 70.341 80.9049C68.9393 81.7596 67.5547 82.3921 66.1872 82.8023L64.136 95.7253H45.2644ZM54.7002 68.0333C58.3924 68.0333 61.5377 66.7342 64.136 64.1359C66.7342 61.5377 68.0333 58.3924 68.0333 54.7001C68.0333 51.0079 66.7342 47.8626 64.136 45.2644C61.5377 42.6661 58.3924 41.367 54.7002 41.367C51.0079 41.367 47.8627 42.6661 45.2644 45.2644C42.6661 47.8626 41.367 51.0079 41.367 54.7001C41.367 58.3924 42.6661 61.5377 45.2644 64.1359C47.8627 66.7342 51.0079 68.0333 54.7002 68.0333Z" fill="#717C83"/>
</g>
<path d="M44.3315 100.546L42.0464 86.1495C40.5991 85.6163 39.0757 84.8927 37.4761 83.9787C35.8765 83.0646 34.4674 82.1125 33.2486 81.1223L19.7664 87.2921L9.1405 68.554L21.4802 59.5278C21.3279 58.8422 21.2327 58.0615 21.1946 57.1855C21.1565 56.3095 21.1374 55.5288 21.1374 54.8432C21.1374 54.1577 21.1565 53.377 21.1946 52.501C21.2327 51.625 21.3279 50.8443 21.4802 50.1587L9.1405 41.1325L19.7664 22.3944L33.2486 28.5642C34.4674 27.574 35.8765 26.6219 37.4761 25.7078C39.0757 24.7938 40.5991 24.1082 42.0464 23.6512L44.3315 9.14062H65.3547L67.6399 23.537C69.0871 24.0701 70.6296 24.7747 72.2672 25.6507C73.9049 26.5267 75.2951 27.4978 76.4376 28.5642L89.9199 22.3944L100.546 41.1325L88.206 49.9302C88.3584 50.6919 88.4536 51.5108 88.4917 52.3867C88.5298 53.2627 88.5488 54.0815 88.5488 54.8432C88.5488 55.605 88.5298 56.4047 88.4917 57.2426C88.4536 58.0805 88.3584 58.8803 88.206 59.642L100.546 68.554L89.9199 87.2921L76.4376 81.1223C75.2189 82.1125 73.8288 83.0837 72.2672 84.0358C70.7057 84.9879 69.1633 85.6925 67.6399 86.1495L65.3547 100.546H44.3315ZM54.8431 69.6966C58.9564 69.6966 62.4602 68.2493 65.3547 65.3548C68.2492 62.4603 69.6965 58.9565 69.6965 54.8432C69.6965 50.73 68.2492 47.2261 65.3547 44.3316C62.4602 41.4371 58.9564 39.9899 54.8431 39.9899C50.7299 39.9899 47.226 41.4371 44.3315 44.3316C41.437 47.2261 39.9898 50.73 39.9898 54.8432C39.9898 58.9565 41.437 62.4603 44.3315 65.3548C47.226 68.2493 50.7299 69.6966 54.8431 69.6966ZM54.8431 62.8412C52.6342 62.8412 50.7489 62.0604 49.1874 60.4989C47.6259 58.9374 46.8452 57.0522 46.8452 54.8432C46.8452 52.6343 47.6259 50.7491 49.1874 49.1875C50.7489 47.626 52.6342 46.8453 54.8431 46.8453C57.0521 46.8453 58.9373 47.626 60.4988 49.1875C62.0603 50.7491 62.8411 52.6343 62.8411 54.8432C62.8411 57.0522 62.0603 58.9374 60.4988 60.4989C58.9373 62.0604 57.0521 62.8412 54.8431 62.8412ZM49.8158 93.6905H59.8704L61.47 80.8937C63.9836 80.2844 66.364 79.3322 68.611 78.0373C70.8581 76.7424 72.8957 75.1809 74.7238 73.3528L86.835 78.6086L91.4052 70.3821L80.6651 62.4984C80.9698 61.2035 81.2173 59.9277 81.4078 58.6708C81.5982 57.414 81.6934 56.1382 81.6934 54.8432C81.6934 53.5483 81.6172 52.2725 81.4649 51.0157C81.3126 49.7588 81.046 48.483 80.6651 47.1881L91.4052 39.3044L86.835 31.0779L74.7238 36.3337C72.9718 34.3532 70.9914 32.6965 68.7824 31.3635C66.5735 30.0305 64.136 29.1736 61.47 28.7928L59.8704 15.996H49.8158L48.2162 28.7928C45.6264 29.326 43.208 30.24 40.961 31.5349C38.7139 32.8298 36.7144 34.4294 34.9625 36.3337L22.8513 31.0779L18.281 39.3044L29.0211 47.1881C28.7165 48.483 28.4689 49.7588 28.2785 51.0157C28.088 52.2725 27.9928 53.5483 27.9928 54.8432C27.9928 56.1382 28.088 57.414 28.2785 58.6708C28.4689 59.9277 28.7165 61.2035 29.0211 62.4984L18.281 70.3821L22.8513 78.6086L34.9625 73.3528C36.7906 75.1809 38.8282 76.7424 41.0752 78.0373C43.3223 79.3322 45.7026 80.2844 48.2162 80.8937L49.8158 93.6905Z" fill="#304857"/>
</g>
</svg>
